<svg xmlns="http://www.w3.org/2000/svg" width="80" height="80" viewBox="0 0 60 60"><path d="M21.2 11c-2.2.9-4.3 4.7-5.7 10.3-1.1 4.4.9 3.1 2.3-1.6.8-2.3 2.1-5 2.9-6 2.2-2.3 7.5-2.2 10.4.4l2.4 2-3-.7c-1.6-.4-4.3-.8-6-.8-2.9-.1-3-.1-7.2 13.9-2.3 7.7-3.9 14.3-3.5 14.7.9.8 24.2 7.2 24.6 6.7.7-.8 8.6-26.7 8.6-28.2 0-1-1.8-1.9-5-2.7-3.1-.7-5.4-2-6.1-3.2-2.4-4.5-9.5-6.8-14.7-4.8m8.4 14.5c1.6.8 4.1 1.5 5.7 1.5 2.7 0 2.7 0 1.2 3-.8 1.6-1.5 4.3-1.5 6 0 3.5.2 3.4-4.3 1.5-2-.8-4.7-1.5-6.1-1.5-2.4 0-2.4-.1-1-2.8.7-1.5 1.4-3.9 1.4-5.3 0-2.2.7-3.9 1.6-3.9.1 0 1.5.7 3 1.5"/><path d="M29 30.9c0 .6.5 1.3 1 1.6.6.3 1-.1 1-.9 0-.9-.4-1.6-1-1.6-.5 0-1 .4-1 .9"/></svg>