<svg xmlns="http://www.w3.org/2000/svg" width="80" height="80" viewBox="0 0 60 60"><path d="M39 18.5C31.4 26.1 27.9 30.3 28.6 31c.6.6 4.8-2.9 12.4-10.5S52.1 8.7 51.4 8c-.6-.6-4.8 2.9-12.4 10.5m-.1 11.1c-.7.8-2.8 2.3-4.6 3.3-3.4 1.7-3.4 1.7-1.4 3.5 1.9 1.7 2 1.7 3.6-1.6 1-1.8 2.4-4.1 3.3-5.1.8-.9 1.3-1.7 1-1.7s-1.1.7-1.9 1.6m-16.3 4.3c-1.8 1.9-1.6 5.1.2 5.1.5 0 1.7-.9 2.7-2 1.7-1.8 1.7-2.2.4-3.6-1.4-1.3-1.7-1.2-3.3.5m-8.9 9.4c-5.6 5-5.8 5.3-4 6.9 1.7 1.6 2.1 1.4 6.6-4 4.3-5.2 5.8-8.3 4-8.2-.5.1-3.4 2.4-6.6 5.3M35 39.7c-5.6 1.9-5.3 1.7-4.5 4.3.7 2.2.8 2.1 3.9-.9 1.8-1.7 3.7-3.1 4.3-3.1.7 0 1.5-.5 1.8-1 .8-1.3 0-1.2-5.5.7"/></svg>