<svg xmlns="http://www.w3.org/2000/svg" width="80" height="80" viewBox="0 0 60 60"><path d="m26 12.4-2.5 1.4 2.6 1.2c3 1.4 7.3-.2 6.6-2.3-.5-1.7-3.8-1.9-6.7-.3m-13.8 2.2c-2.6 1.8-3.1 7.4-.7 7.4.8 0 1.5-.5 1.5-1 0-.6-.4-1-1-1-2.2 0-.9-4 1.8-5.4 1.5-.8 2.2-1.5 1.7-1.6-.6 0-2.1.7-3.3 1.6m21.2-.5c-.4.7.1 1.8 1.1 2.6 2.7 1.9 3.7 1.6 2.5-.6-1.4-2.7-2.7-3.4-3.6-2m-10.8 2.6c-.9 2.2-.3 2.5 1.9 1 1.5-1.2 1.6-1.5.2-2-.9-.3-1.8.1-2.1 1m-2.5 5c-6.8 4.3-7.2 4.7-5.5 6 2.5 1.9 4.7 1.3 5.4-1.5.3-1.4 2.7-3.5 6.5-5.7 4.8-2.8 5.5-3.4 3.5-3.5-1.4 0-5.8 2.1-9.9 4.7"/><path d="M28 21.1c-7.3 4-7.7 4.5-5.6 6.8 3.2 3.5 7.7 3.5 15-.1C41 26 44 24.3 44 23.9c0-.7-8.7-5.9-9.9-5.9-.3 0-3.1 1.4-6.1 3.1m2.5 4.9c0 2.2-3.9 1.9-4.3-.3-.3-1.5.1-1.8 2-1.5 1.2.2 2.3 1 2.3 1.8m-16.2-4.8c.2.7 1 1.3 1.7 1.3s1.5-.6 1.8-1.3c.2-.7-.5-1.2-1.8-1.2s-2 .5-1.7 1.2m-6.7 2.4c-2.1 2.1-2 4.7.4 7.5 1.7 2.1 1.9 2.2 2 .6 0-1 .7-3.1 1.5-4.7 1.4-2.7 1.4-3-.4-4-1.5-.7-2.3-.6-3.5.6"/><path d="M38.5 28.5c-3.3 1.9-7.4 3.5-9.1 3.5-4 0-5.9 1.9-3.6 3.6 2.7 2.1 11 1.7 13.9-.6 1.4-1.1 3.6-2 4.8-2 3.2 0 6.2-3.6 4.9-5.8-1.7-2.7-4.5-2.4-10.9 1.3m-26.9 1.1C10 33.7 12.2 41 15.1 41c1.3 0 1.1-10.4-.3-11.8-1.6-1.6-2.5-1.5-3.2.4m7 .6c-.9 1.3-1.6 4.3-1.6 6.8 0 3.7.5 5.2 2.5 7l2.5 2.3v-5.4c0-3 .6-6.3 1.4-7.4 1.2-1.8 1.1-2.2-1-3.8-2.2-1.6-2.3-1.6-3.8.5M49.2 32c-2.4 2.2-3.1 4-.9 2.1.8-.6 1.7-.9 2-.6.4.3.5.2.2-.2-.3-.3 0-1.2.6-2 1.7-2 .6-1.6-1.9.7"/><path d="M42 34.9c0 .5.8 1.9 1.8 3.1 1.8 2.2 1.9 2.2 4.5.5 3-1.9 2.8-3.6-.3-2.8-1.1.3-2 0-2-.6s-.9-1.1-2-1.1-2 .4-2 .9m-19 5.3c0 7.8 5.5 11.7 11.9 8.3 2.6-1.3 3-2 2.6-4.3-.5-2.4-.4-2.4.9.5 1.9 4.1 2.8 4.1 4.8 0 1.5-3.1 1.5-3.6 0-6-2.1-3.4-4-3.4-4.8-.1-.4 1.4-.9 2.2-1.3 1.7-.3-.6-2.8-1.4-5.6-2-2.7-.6-5.8-1.4-6.7-1.8-1.6-.6-1.8-.1-1.8 3.7m24.1.9c-3 3-3.1 3.2-1.5 5 2.3 2.6 4 2.4 6-.5 1.7-2.7 1.6-6.7-.2-7.3-.7-.2-2.6 1-4.3 2.8M43 48c0 .5.7 1 1.6 1 .8 0 1.2-.5.9-1-.3-.6-1-1-1.6-1-.5 0-.9.4-.9 1"/></svg>