<svg xmlns="http://www.w3.org/2000/svg" width="80" height="80" viewBox="0 0 60 60"><path d="M35 4.7c0 .6-1.1 1.4-2.5 1.7-1.7.4-2.5 1.3-2.5 2.7 0 1.6.3 1.9 1.3 1.1 2-1.7 6.7-.2 7.8 2.5 1.3 3.4 1.1 6.9-.3 8.1-1 .8-1.3.3-1.4-1.9-.1-3.5-3.8-6.8-7.8-6.9-1.6 0-2.6.3-2.3.6.3.4.2 1.4-.3 2.4-1.3 2.4 0 3.4 1.6 1.3 1-1.5 1.5-1.6 3.8-.4 2.6 1.4 5 6.6 3.9 8.4-.4.6-.1.7.8.2 3.3-1.9 4.9-4 4.9-6.2 0-1.4.4-2.1 1-1.8s1-.1 1-1c0-1.2-.5-1.5-1.6-1.1-1.4.5-1.5.1-1-2.1 1.5-5.9.1-9.8-2.7-7.5-1 .9-1.6.9-2.5 0C35.4 4 35 4 35 4.7M41 7c0 .5-.2 1-.4 1-.3 0-.8-.5-1.1-1-.3-.6-.1-1 .4-1 .6 0 1.1.4 1.1 1m6.6 15.4c3.2 1.4 5 4.1 3.4 5.1-1.5 1-1.2 2.5.4 1.9 2.2-.8 2.6-3 1.3-5.8-1-2.1-1.9-2.6-4.7-2.6l-3.5.1zM6.5 26c-1 1.5.3 2.9 4.2 4.5 4.8 2 6.7 1.3 2.6-.9-1.8-.9-3.3-2.3-3.3-3.1 0-1.7-2.6-2-3.5-.5"/><path d="M45.3 26.9c.1 1.5.4 1.7 1.4.9 1.7-1.4 1.6-2.8-.1-2.8-.8 0-1.4.9-1.3 1.9m-16.3 0c-9 1.3-9.3 4-1.2 10.3 4.8 3.7 6.2 4.3 8.1 3.6 2.1-.7 2.2-1.3 1.7-5.1-1-7.4-1.9-9.9-3.4-9.6-.4.1-2.7.5-5.2.8m4.4 5.4c1.6 2.5-1.6 5.6-3.8 3.7-1.9-1.5-2-3.2-.4-4.8 1.5-1.5 2.8-1.1 4.2 1.1"/><path d="M17.5 34.6c-1.6 1.3-3.6 2.9-4.2 3.5-1.9 1.5-2.7 5.8-1.7 8.7C12.8 50.4 20.5 56 24 56c4 0 7.1-3 7.9-7.6.6-3.2 1-3.8 2.6-3.6 2.3.4 2.2.3-2-2.3-2.5-1.5-2.8-1.6-1.6-.2 1.9 2.3.5 2.1-3.2-.5-6.3-4.2-8.7-7-7.6-8.5 1.7-2 .7-1.5-2.6 1.3m7 10.2c.7 1.9-2 4.3-4.1 3.5-1.7-.6-1.9-5-.1-5.6s3.5.2 4.2 2.1"/><path d="M21 34.4c0 .2.8 1 1.8 1.7 1.5 1.3 1.6 1.2.3-.4S21 33.6 21 34.4m23.4 3.7c-.7 3.6-1.5 4.7-4.4 6.1-3.9 2-2.6 2.5 1.5.6 2.4-1.1 5.1-7.4 4.2-10.1-.2-.6-.8.9-1.3 3.4"/></svg>