<svg xmlns="http://www.w3.org/2000/svg" width="80" height="80" viewBox="0 0 60 60"><path d="M38.1 12.1c-.1.9.4 3.1 1.1 4.9 1 3.1.9 3.4-2.3 6.1-4.3 3.5-3.3 4.7 1.5 1.8l3.6-2.1 4.4 2.6c6 3.5 6.6 3.3 2.5-1l-3.4-3.5L49 18c3.8-3.2 2.7-3.9-2.2-1.4-3.4 1.8-3.8 1.6-7.5-4.2-1-1.6-1.2-1.6-1.2-.3"/><path d="M19.9 18.2c-1.2 2.7-2.7 4.8-3.2 4.8s-2.5-1.4-4.4-3.1c-4.6-4-5.4-3-1.4 1.8 1.7 2.1 3.1 4.2 3.1 4.7 0 .6-1.7 2.7-3.7 4.8-4.3 4.4-3 5 2.8 1.1 4.4-2.9 5.6-2.7 11.5 2.3l2.9 2.4-6 5.5c-3.2 3-5.7 5.7-5.3 6 .3.3 3.5-1 7-2.9l6.4-3.6 7.8 4.6c4.2 2.6 7.9 4.4 8.2 4.2.2-.3-2.1-3-5.2-6l-5.7-5.6 4.4-3.2c2.4-1.7 5-3.5 5.8-3.9.7-.5 1.2-1.3 1-1.9s-3 .2-6.8 1.9c-3.5 1.6-6.7 2.6-7.2 2.4-.4-.3-2.2-3-3.9-6-2.9-5.1-6.1-7.7-4.5-3.8.3 1 .9 3.1 1.2 4.8l.6 3-2.1-1.9c-2.5-2.1-2.9-6.4-1.1-11.4 1.8-5.3.3-6-2.2-1"/></svg>