<svg xmlns="http://www.w3.org/2000/svg" width="80" height="80" viewBox="0 0 60 60"><path d="M19.8 12c-1.4 1.1-2.8 3.2-3.1 4.7-.4 1.5-.9 3.8-1.3 5-.3 1.3-.2 2.3.4 2.3.5 0 1.2-1.2 1.5-2.8.4-1.5 1.5-4.2 2.6-6 1.7-2.6 2.7-3.2 5.5-3.2 2 0 4.3.8 5.7 2.1l2.4 2-3-.7c-1.6-.4-4.3-.8-6-.8-2.9-.1-3-.1-7.2 13.9-2.3 7.7-3.9 14.3-3.5 14.6 1.2 1.1 23.3 7 24.2 6.4.9-.5 9-25.5 9-27.8 0-.9-1.8-2-4.7-2.8-3.1-.8-6-2.6-8.4-5.1-3-3.2-4.3-3.8-7.6-3.8-2.5 0-5 .8-6.5 2m3.8 12.6c-.9.8-1.4 2-1 2.5.3.5 1.2.2 2-.6.9-.8 2-1.5 2.5-1.5.6 0 .7-.6.3-1.3-.5-.8-.2-.8.9.2 1.3 1 2 1.1 3.1.2s1.5-.7 1.9.8c.3 1.4 1.1 1.7 3 1.4 1.3-.3 2.8.1 3.2.7.5.9.1 1-1.5.5s-2-.4-1.5.5c1.6 2.6 1.2 6.1-1.2 8.5-1.6 1.5-2.2 2.9-1.7 3.7.4.7-.5.3-2-1C30 38 27.5 37 26 37c-2.8 0-2.9-.2-3.3-5.9-.1-1.9-.8-3.6-1.6-3.9-1-.3-1.2.2-.7 2.2.4 1.5.2 2.6-.4 2.6-1.8 0-1.1-4.3 1.2-6.7 1.2-1.3 2.6-2.3 3-2.3.5 0 .2.7-.6 1.6M41 31c0 1.1-.7 2-1.5 2-1.3 0-1.3-.3-.3-2 .7-1.1 1.4-2 1.5-2 .2 0 .3.9.3 2m-21 4.5c1.4 1.9 1.4 1.9-.2.6-1-.7-1.8-1.8-1.8-2.4q0-.9.3-.6c.1.2.9 1.3 1.7 2.4m19.2 2.7c-.7 1.5-1.4 2.8-1.5 2.8s-.2-1.3-.2-2.8c0-1.8.5-2.8 1.6-2.8 1.3 0 1.4.4.1 2.8"/><path d="M26.6 27.8c-.2.4.1 1.5.8 2.4 1.2 1.6 1.4 1.6 2.4-.7 1-2.2.9-2.5-.8-2.5-1 0-2.1.3-2.4.8m5 .7c-.3.9-.6 2.4-.6 3.2 0 1.2.3 1.3 1.4.4 1.2-1 1.3-.8.9.8-.3 1.2-.9 1.9-1.3 1.6-1-.6-2.4 1.4-1.6 2.2 1.2 1.2 4.4-2.9 4.1-5.3-.3-3.4-2-5.1-2.9-2.9M24.5 31c.4.6 1.1.8 1.6.5 1.4-.9 1.1-1.5-.7-1.5-.8 0-1.2.5-.9 1m1.2 2.6c-.8.8.1 2.4 1.4 2.4.5 0 .9-.7.9-1.5 0-1.5-1.2-2-2.3-.9"/></svg>