<svg xmlns="http://www.w3.org/2000/svg" width="80" height="80" viewBox="0 0 60 60"><path d="M17 9c0 .5.5 1 1.1 1 .5 0 .7-.5.4-1-.3-.6-.8-1-1.1-1-.2 0-.4.4-.4 1m25.5 0c-.3.5-.1 1 .4 1 .6 0 1.1-.5 1.1-1 0-.6-.2-1-.4-1-.3 0-.8.4-1.1 1m-34 9c.3.5.8 1 1.1 1 .2 0 .4-.5.4-1 0-.6-.5-1-1.1-1-.5 0-.7.4-.4 1m42 0c.3.5.8 1 1.1 1 .2 0 .4-.5.4-1 0-.6-.5-1-1.1-1-.5 0-.7.4-.4 1M36 21.4c.7 1.9.5 2.8-1.1 4.2-2.4 2.1-1.8 3 1 1.5 1.6-.9 2.8-.8 5.3.5l3.3 1.7-2.3-2.5-2.3-2.5 2.3-1.7c2.2-1.6 1.4-1.6-2.6 0-.9.3-1.7-.3-2.1-1.5-.3-1.2-1-2.1-1.5-2.1-.6 0-.6 1 0 2.4"/><path d="M25 21.8c0 .5-.6 1.7-1.4 2.7-1.4 1.9-1.5 1.9-3.5.1-2.5-2.3-2.8-1.1-.4 1.6 1.5 1.7 1.5 2-.7 4.3-1.3 1.4-1.8 2.5-1.2 2.5s1.4-.5 1.7-1c.9-1.5 4.8-1.2 7.4.6l2.3 1.6-3.9 4-3.8 4 4.7-2.3 4.6-2.2 4.9 2.8 4.8 2.8-3.2-3.5c-1.8-1.9-3.3-3.7-3.3-4 0-.4 1.6-1.6 3.6-2.8 4.5-2.9 3.9-3.4-1.4-1.3-2.3.9-4.4 1.4-4.5 1.2-.2-.2-1.3-2-2.6-3.9-2.2-3.4-2.2-3.4-1.8-.8.2 1.6.1 2.8-.3 2.8-1.4 0-2.1-3.2-1.4-6.6.3-1.9.3-3.4 0-3.4s-.6.4-.6.8M53.5 24c-.3.5-.1 1 .4 1 .6 0 1.1-.5 1.1-1 0-.6-.2-1-.4-1-.3 0-.8.4-1.1 1m-45 19c-.3.5-.1 1 .4 1 .6 0 1.1-.5 1.1-1 0-.6-.2-1-.4-1-.3 0-.8.4-1.1 1M51 43c0 .5.5 1 1.1 1 .5 0 .7-.5.4-1-.3-.6-.8-1-1.1-1-.2 0-.4.4-.4 1m-34 8c0 .5.5 1 1.1 1 .5 0 .7-.5.4-1-.3-.6-.8-1-1.1-1-.2 0-.4.4-.4 1m25 0c0 .5.5 1 1.1 1 .5 0 .7-.5.4-1-.3-.6-.8-1-1.1-1-.2 0-.4.4-.4 1m-18.5 3c-.3.5-.1 1 .4 1 .6 0 1.1-.5 1.1-1 0-.6-.2-1-.4-1-.3 0-.8.4-1.1 1"/></svg>