<svg xmlns="http://www.w3.org/2000/svg" width="80" height="80" viewBox="0 0 60 60"><path d="M24.9 11.9c-6.4 2-11.2 6.1-13.8 11.6-1.9 4.4-2.3 14.6-.5 16.9 1.3 1.8 1.4 1.5 1.4-3.2 0-6.7 1.8-10.9 6.3-14.9 5.2-4.6 10.5-6 16.7-4.4 3.7 1 5.4 1 7 .1 2-1.1 2-1.3.6-2.9-.9-1-1.3-2-1-2.4.3-.3-.3-.3-1.5 0s-2.1.1-2.1-.3c0-1.2-9.8-1.5-13.1-.5m26.2 2.5c0 1.1-1.1 3.1-2.3 4.5l-2.2 2.6 2.8-2.6c1.8-1.7 2.6-3.3 2.3-4.5-.4-1.8-.5-1.8-.6 0"/><path d="M36.5 22.9c-6.5 4.9-12.1 9.4-12.3 10s.1 1.8.8 2.6c1 1.2 2.5.5 9.3-4.7 4.5-3.4 8.7-6.6 9.2-7.1 1.9-1.9-1.9.6-7.7 5-3.2 2.4-5.8 4.2-5.8 3.9s4.5-3.9 10-8.1 10-8.2 10-9-.3-1.5-.7-1.4c-.5 0-6.2 4-12.8 8.8m9.8.2c-.8.8-.7 1.8.3 3.7 3.4 6.6 3 13.6-1.2 19.8l-2.6 3.9 2.6-2.5c3.2-2.9 6.6-10.2 6.6-14.1 0-4.3-2.3-11.9-3.5-11.9-.6 0-1.6.5-2.2 1.1M19.5 34.3c.8 1.3 1.3 2.6 1 2.8-.2.3.7.5 2 .5 3.3 0 2.7-1.5-1.3-3.8L18 32zm4.6 6.4c.7 1.2 1.5 2 1.8 1.7.3-.2-.3-1.2-1.3-2.2-1.7-1.6-1.8-1.6-.5.5M10.5 45c.3.5.8 1 1.1 1 .2 0 .4-.5.4-1 0-.6-.5-1-1.1-1-.5 0-.7.4-.4 1m5 3c1 1.1 2 2 2.3 2s-.3-.9-1.3-2-2-2-2.3-2 .3.9 1.3 2"/></svg>