<svg xmlns="http://www.w3.org/2000/svg" width="80" height="80" viewBox="0 0 60 60"><path d="M26.8 13.2C26.3 14.4 25 15 23 15c-3.6 0-8.3 4.1-7.8 6.8.2.9 2.1 2.6 4.2 3.7 2.2 1.1 4.3 2.9 4.7 4 1 2.6 1.1 8.3.2 8.8-.5.3-.8-1.5-.8-4 0-3.5-.5-4.9-2.4-6.4-3.2-2.6-6.7-2.4-9.6.6-4.7 4.6-2.4 9.9 4 9.3 4.5-.3 5.7-2.5 3-5.2-.9-.9-1.2-1.6-.7-1.6s1.5.7 2.3 1.6c1 1.3 1 2.2-.1 5.2-.7 2-1.7 4-2.3 4.3-.5.4-.9 1.8-.9 3.3 0 1.4-.4 2.4-.8 2.1-.3-.2-.7.2-.7.9 0 .8 2.2-.8 4.9-3.5 4.5-4.5 10.8-7.3 12.5-5.5.4.3-.4.6-1.6.6q-4.2 0-9.3 4.8c-4 3.7-3.5 4.6.8 1.7 4.6-3.1 5.9-3.1 9 0 2.6 2.6 6.8 3.3 8 1.4.3-.6-.6-2.4-2.1-3.9-2.4-2.5-2.6-3.2-1.5-4.5 1.4-1.6 6.5-2.1 7.5-.6.3.6-.9.7-3.1.4-3.3-.6-3.6-.4-3.2 1.8.3 2.1.9 2.4 5 2.7 4.3.3 4.9 0 5.9-2.2.8-1.7.8-3.3.1-5.4-.9-2.5-.7-3.3 1.1-5.1 1.2-1.1 1.6-2.1 1-2.1s-1.6.7-2.3 1.5-2 1.5-2.9 1.5c-1.2 0-1.3-.2-.3-.9 1-.6 1.1-2.2.6-5.8-.4-3.3-.2-5.3.5-5.7.6-.4 1.1-1.2 1.1-1.8s-.8-.4-1.8.5c-.9.9-3.7 2-6.2 2.6-4.8 1.1-7.2 3.4-6.8 6.6.4 2.7 5.7 3.4 7.5.9.7-1 1.3-1.3 1.3-.8 0 3.1-6.4 4.6-8.8 2.2-3.1-3.1 1.1-9.8 6.2-9.8 1.2 0 2.7-.9 3.4-2.1 1.8-2.8.7-3.7-1.8-1.4-1.9 1.7-2.1 1.7-3.8.2-1-1-2.4-1.7-3-1.7-.7 0-1.2-.8-1.2-1.7 0-1.4-.3-1.3-1.6.5-.9 1.4-1.3 3.1-.8 4.5.3 1.2.3 1.9-.1 1.5-.5-.4-1.1-2.5-1.4-4.5-.5-2.8-.8-3.3-1.3-2.1m3.4 11.5c-.5 1-.8 3.2-.5 4.8.3 2.2-.2 3.8-1.6 5.5L26 37.5l1.5-3.8c.9-2.1 1.3-4.7 1-5.7s0-3 .7-4.5 1.4-2.3 1.6-1.7-.1 1.9-.6 2.9m12.6 7.8c-.3.3-2.9.9-5.7 1.4-2.9.5-4.9.5-4.4 0 .7-.7 2.2-1 9.2-1.7.8-.1 1.2 0 .9.3"/><path d="M47 24.5c-.8.9-.8 1.5-.2 1.5 1.2 0 2.6-1.9 1.9-2.6-.2-.2-1 .2-1.7 1.1"/></svg>