<svg xmlns="http://www.w3.org/2000/svg" width="80" height="80" viewBox="0 0 60 60"><path d="M28.3 8.6c-1.2 1.3-1.8 2.6-1.3 2.9s1.8-.7 3-2.2c2-2.5 2.2-2.6 1.6-.6-.8 2.6.8 3.2 1.8.7 1.5-3.8-1.8-4.4-5.1-.8"/><path d="M19.6 14.5C14.8 17.4 14 18.6 14 23c0 2.5.8 4.3 3.1 6.6l3.1 3.3-2.2 4.5c-1.9 4-2 5-1 8.1.6 1.9 2.3 4.4 3.6 5.4 5.6 4.4 19.4 3.4 23.4-1.6 2.5-3.2 2.6-9.9.3-13.2-1.1-1.6-1.7-4.6-1.7-9l-.1-6.5-4.2-2.9c-2.4-1.5-4.3-3.5-4.3-4.3s-.6-1.4-1.4-1.4c-2.4 0-4.6 1.2-4.6 2.4 0 .7-1.5 2.1-3.4 3.1-4.7 2.5-6.3 5.7-4.7 9.1.6 1.5.9 2.9.6 3.3-1 1-5.5-4.8-5.5-7 0-2.1 3.5-6.1 8-9.1 3.8-2.6 1-2-3.4.7M40.5 31c-.3.5-.1 1 .6 1 1 0 1 .3.2 1.1s-.8 2.4.3 5.8c2 6.7 1.9 7.1-2.2 7.1-3.3 0-3.6-.2-3-2.3.4-1.2 1-3.9 1.3-6l.6-3.7h-8.1c-8.7 0-12.7-1.9-4.5-2.2l4.8-.1L26 31c-3.5-.6-2.4-.7 5.3-.8 6.3-.1 9.6.2 9.2.8"/></svg>