<svg xmlns="http://www.w3.org/2000/svg" width="80" height="80" viewBox="0 0 60 60"><path d="M39 19.5C31.4 27.1 27.9 31.3 28.6 32c.6.6 4.8-2.9 12.4-10.5S52.1 9.7 51.4 9c-.6-.6-4.8 2.9-12.4 10.5m-24.6-8.6c-1.7 1-3.4 2.8-3.7 4s-.1 1.9.3 1.6c.5-.3.7 1.4.5 3.7-.5 4.9.2 6.3 2.1 4.7 1.1-.9 1.4-.8 1.4.4 0 2.3 7.1 2.9 7.7.6.3-1 1.2-1.5 2.1-1.2 1.4.3 1.7-.5 1.6-5.3 0-4.9-.4-6-2.8-8-3.3-2.9-5.1-3-9.2-.5m3.6 6c0 .5-.6 1.1-1.3 1.4-.8.3-1.4-.1-1.4-.9s.6-1.4 1.4-1.4c.7 0 1.3.4 1.3.9m5.4-.3c2.2.8 2.1 4.4-.1 4.3-1.1 0-1.3-.3-.5-.6.6-.2 1.2-.9 1.2-1.4 0-.6-.4-.8-.9-.5-.4.3-1.7-.1-2.7-.9-1.7-1.3-1.7-1.4-.2-1.5.9 0 2.3.3 3.2.6m-9.9 1.3c-.3.6.3 1.4 1.2 2 1.6.9 1.6 1 .1 1.1-.9 0-2-.5-2.3-1-.6-1 .1-3 1.1-3 .3 0 .3.4-.1.9M20 22c0 .5-.4 1-1 1-.5 0-1-.5-1-1 0-.6.5-1 1-1 .6 0 1 .4 1 1m16.5 10.1c-5.2 3.9-5 3.6-3.5 5.4 1.5 1.9 3 1.9 3 .1 0-.7 1.1-3 2.5-5 1.3-2 2.3-3.6 2.2-3.5-.1 0-2 1.4-4.2 3m-12.9 2c-2.7 2.1-3.3 4.3-1.5 5.4 1.3.9 4.5-2 5.2-4.6.8-2.8-.7-3.1-3.7-.8"/><path d="M16 42.3c-1.9 1.8-4.6 4-5.9 4.9-2 1.4-2.2 2-1.1 3.3 2 2.4 3.2 1.8 7.8-3.8 6.2-7.5 5.7-10.4-.8-4.4M38 40c-.8.5-2.8 1-4.3 1-3 0-4.7 2.4-2.8 4.3.8.8 1.8.4 3.8-1.5 1.6-1.4 3.7-3 4.8-3.6s1.6-1.1 1-1.2c-.5 0-1.7.5-2.5 1"/></svg>