<svg xmlns="http://www.w3.org/2000/svg" width="80" height="80" viewBox="0 0 60 60"><path d="M21 11.2c-1.5.8-3.1 3.2-4.2 6.3-2.1 5.9-2.2 6.8-.6 6.3.7-.3 1.3-1.1 1.3-1.9.2-8.3 8-12.8 13.6-7.9l2.4 2.1-3.5-.7c-8.5-1.8-7.9-2.4-12.6 13-2.4 7.7-4.1 14.3-3.9 14.6.5.8 24.4 7.5 24.9 6.9 1-1 9.3-29 8.7-29.3-.3-.2-2.6-.9-5.1-1.6-2.9-.8-5.5-2.4-7.5-4.7-3.4-3.9-9.3-5.3-13.5-3.1M33.6 26c1.2 0 1.2.5-.2 3.2-1 1.9-1.2 3.4-.7 3.5.6.2 1.8 1 2.8 1.7 1.8 1.3 1.8 1.4-.1 3.4l-2 2.1-1.8-2.9c-1.6-2.9-1.8-2.9-4.1-1.4s-5.1 1.1-4-.6c.3-.5 0-1.2-.7-1.7-.9-.5-.3-1 1.7-1.3 1.7-.4 3.6-.2 4.3.3.7.6 1.5.7 1.9.3.3-.3.1-.6-.5-.6-.7 0-1.2-1.5-1.2-3.6 0-2.9.3-3.5 1.6-3 .9.3 2.2.6 3 .6"/></svg>