<svg xmlns="http://www.w3.org/2000/svg" width="80" height="80" viewBox="0 0 60 60"><path d="M39.7 7.4c-.4.9-.4 2.4-.2 3.3.3 1 0 .6-.7-.8-1.2-2.3-1.7-2.5-4.5-1.7-4.2 1.1-5.9 4-3.7 6.2 1.4 1.5 1.3 1.6-.8 1.6-2 .1-1.9.3 1.2 2 3.9 2 5 1.9 3-.5-.7-.9-.8-1.5-.2-1.5.5 0 1.5 1.5 2.2 3.2 1 2.9 1.2 3.1 2.1 1.5.6-.9.8-2.5.5-3.5-.3-.9-.1-2.4.4-3.2.7-1.1 1-1.2 1-.2 0 .9.8.7 2.6-.7 1.5-1.2 3.2-2.1 3.9-2.1s1.5-.7 1.9-1.5c.5-1.3.2-1.4-1.5-.5-2 1.1-4.1.3-6-2.3-.3-.5-.9-.2-1.2.7"/><path d="M49.5 11c-.3.5-1.5 1-2.6 1s-3.1 1.1-4.4 2.4c-1.5 1.6-2.6 2-2.9 1.3s-.3-.2 0 1c.3 1.3.1 3-.4 3.9-.7 1.3-.1 2.9 2.5 6.6 3.2 4.4 6.3 5.7 4.9 2.1-.5-1.1-.2-1.3 1-.9.8.3 2.5.1 3.6-.5 1.6-.9 1.9-1.7 1.4-4.1-.4-1.8-.1-3.8.6-4.7 1-1.3 1-1.4-.2-.4-.8.7-2.1 1.3-2.9 1.3-1 0-1.2-.3-.6-.8.6-.4 1.6-1.7 2.2-2.9 1.1-1.9 1.1-2.1-.4-1.6-1.3.5-1.5.2-.9-2 .6-2.7.2-3.5-.9-1.7M47 18c0 .5-.5 1-1.1 1-.5 0-.7-.5-.4-1 .3-.6.8-1 1.1-1 .2 0 .4.4.4 1m0 3c-.8.5-1.9 1-2.5 1-.5 0-.3-.5.5-1s2-1 2.5-1c.6 0 .3.5-.5 1m1.3 3.7c-.7.2-2.1.2-3 0-1-.3-.4-.5 1.2-.5 1.7 0 2.4.2 1.8.5m-36.7-6.1c-6.7 2.4-7 3-3.5 8 1.7 2.5 3.5 4.2 4.1 3.8.7-.4.8-.2.4.4-.4.7.7 3.2 2.3 5.6q3.15 4.5 2.4 6.3c-.6 1.7-.6 1.7.9.2.9-.9 1.8-3.5 2-5.7.2-3.2.6-3.9 1.7-3.3 1 .6 1 1.3.3 2.8-1.6 2.9-.4 6.3 2.2 6.2 2 0 2-.1.1-.8-1.8-.7-1.8-.9.8-2.6 1.5-1 2.6-2 2.3-2.2-.2-.3-1.7.4-3.2 1.4-2.8 1.8-2.8 1.8-2-.2.5-1.1.9-2.9 1-4 .3-3.6 1.7-6.5 2.8-5.9.8.5.9.1.5-1-.4-.9 0-3 .8-4.6s1.5-3.3 1.5-3.9c0-1.5-9.3-2.7-9.8-1.3-.2.8-1 .9-2 .3-1.1-.5-3.2-.3-5.6.5m6.1 8.1c-.2 1.6-.4.5-.4-2.2 0-2.8.2-4 .4-2.8.2 1.3.2 3.5 0 5m2 2.5c-.2 1.3-.4.3-.4-2.2s.2-3.5.4-2.3c.2 1.3.2 3.3 0 4.5m-.7 6.5-.1 3.8-2-2.5c-1.9-2.2-1.9-2.5-.5-2.8.9-.2 1.6-.8 1.6-1.3s.2-.9.5-.9.5 1.7.5 3.7"/><path d="M28.7 22.5c-2.4 5-2 5.8.4 1.2 1.1-2.2 1.9-4.1 1.7-4.3-.3-.2-1.2 1.2-2.1 3.1m.7 2.8c-1.5 3.1-3.1 5.4-3.6 5.1-.4-.3-.5.3-.1 1.2.5 1.3.3 1.5-.7.9s-1.2-.4-.7.9c.4 1 .7 2 .7 2.2 0 1 2.5.2 5.2-1.7 1.7-1.2 4-2.3 5.2-2.3 1.1-.1 2-.8 1.8-1.5-.1-.7.2-1 .8-.6 1.6 1 1.3 1.3-4.5 5.2-3.2 2.1-5.4 4.2-5.1 4.9s0 1.5-.7 1.8c-.7.2-.4.5.7.5 1.5.1 1.6.4.6 1.6-.8.9-2.2 1.3-3.9 1l-2.6-.5 2.5 1.2c18.5 8.9 19.6 9.4 13.3 5-1-.7-.4-.5 1.4.3s3.4 1.5 3.7 1.5.9-1.9 1.3-4.3c.3-2.3.7-4.4.7-4.7.1-.3-1.2-.8-2.9-1.1l-3-.7 3-.2c3-.2 3-.2.5-1l-2.5-.8 2.4-.1c2-.1 2.2-.5 1.7-2.9-1-4.1-5.7-11.2-9.3-13.9l-3.2-2.5zm9 15.5c.2.4-1.2.6-3.2.4-5.6-.5-6.2-1-1.5-1.1 2.3-.1 4.4.3 4.7.7M34 47.5c1.4.8 2.1 1.4 1.5 1.4-.5 0-2.1-.6-3.5-1.4s-2-1.4-1.5-1.4c.6 0 2.1.6 3.5 1.4"/><path d="M31.3 34.1c-3.5 2.2-4.6 3.7-1.5 2 2.2-1.3 5.8-4 5.2-4.1-.3 0-2 1-3.7 2.1M20 44c0 .5.5 1 1.1 1 .5 0 .7-.5.4-1-.3-.6-.8-1-1.1-1-.2 0-.4.4-.4 1"/></svg>