<svg xmlns="http://www.w3.org/2000/svg" width="80" height="80" viewBox="0 0 60 60"><path d="M50.2 11.7c-2.4 6.4-2.1 8.8.3 2.7.9-2.1 2-4.7 2.5-5.6 1.2-2.2 1.3-2.8.1-2.8-.4 0-1.8 2.6-2.9 5.7M28.9 29.9c-10.3 9.7-18.5 17.8-18.3 18s5.1-4.1 10.9-9.5c5.9-5.4 14.3-13.3 18.8-17.5 4.5-4.3 8-7.9 7.7-8.2s-8.9 7.5-19.1 17.2m15.2-6.1c-.7 1.3-1.1 2.6-.8 2.8.8.8 2.9-2.5 2.5-3.8-.3-.8-.9-.4-1.7 1M36 33.5c-1.7 2.1-.8 2.8 1.5 1.1 1.1-.8 1.4-1.5.8-1.9s-1.6 0-2.3.8m-5.9 4.4c-3.2 2.5-1.9 4.7 1.5 2.5 1.3-.9 2.4-2.3 2.4-3 0-1.9-1-1.7-3.9.5m-5.4 4.8c-1.2 1.2-.7 2.2.8 1.7.8-.4 1.5-1 1.5-1.5 0-1.1-1.4-1.2-2.3-.2M14 49c-1.3.9-1.3 1 0 1 .8 0 2.2-.5 3-1 1.3-.9 1.3-1 0-1-.8 0-2.2.5-3 1m-7.8 2.2c-1.9 1.9-1.4 2.9.8 1.6C9 51.5 9.7 50 8.2 50c-.4 0-1.3.5-2 1.2"/></svg>