<svg xmlns="http://www.w3.org/2000/svg" width="80" height="80" viewBox="0 0 60 60"><path d="M26.5 6.9c-.6.5-2.3 1.1-4 1.3-2.5.2-3 .7-2.7 2.8.2 1.9 0 2.2-1 1.2-1.6-1.6-2.8-1.5-2.8.2 0 .7-.9 1.6-1.9 1.9-2.9.7-4 7.6-1.6 9.4 2.2 1.5 4.5 1.7 4.5.3 0-.6-.6-1-1.4-1-1.9 0-3-3.2-1.4-4.2 4.9-3.1 7.3 4.4 3 9.4-.9 1.1-1.2 2.4-.7 3.5.7 1.6.9 1.5 1.4-.7.5-1.6 1.5-2.6 3.1-2.9l2.5-.3-2.3 1.8c-2.3 1.9-2.3 1.9-.3 3.6 1.5 1.2 2.2 1.4 2.7.6.4-.7.2-1.4-.4-1.6-1.9-.6-1.4-2.2.7-2.2 2.2 0 5.1 3.5 5.1 6.2 0 1 .5 1.8 1 1.8.6 0 1-.8 1-1.8 0-2.7 2.9-6.2 5.1-6.2 2.1 0 2.6 1.6.7 2.2-.6.2-.8 1-.4 1.6.5.9 1.1.9 2.2-.2 1.9-1.9 1.8-3.3-.3-4.6-1.7-1-1.7-1.1.1-.8 3.2.5 4.3 3.4 2.2 5.7-1.1 1.2-1.4 2.1-.9 2.1.6 0 1.8-1.1 2.7-2.5 1.3-1.9 1.4-2.9.5-4.9-.7-1.4-1.5-2.4-1.8-2.2s-.6-1.2-.6-3.1c0-4.4 2.4-6.4 5-4.3 1.6 1.3 1.5 1.5-.5 3.2-2.8 2.3-1.9 3.5 1.5 2 2.3-1.1 2.5-1.6 1.9-4.9-.8-4.7-1.2-5.3-3-5.3-.8 0-1.4-.7-1.4-1.6 0-1.1-.6-1.3-1.9-.9-1.4.4-1.9.1-1.7-1.2.1-1.3-.7-1.9-2.9-2.1-1.6-.2-3.4-.8-3.9-1.3C33 6.4 31.4 6 30 6s-3 .4-3.5.9m-7 7.9c-.3.3-1.1 0-1.8-.7-.9-1-.8-1.1.6-.5 1 .3 1.5.9 1.2 1.2m7-.8c-.3.5-1.2 1-1.8 1-.7 0-.6-.4.3-1 1.9-1.2 2.3-1.2 1.5 0m5.9 1.5c-.5 1.1-.2 1.3 1.1.9 1.5-.6 1.6-.3 1.1 2.4-.6 2.3-.3 3.3 1.1 4.1 1.6.9 1.5 1-.9 1.1-1.9 0-2.8.5-2.8 1.6 0 1-.6 1.4-1.5 1-.9-.3-1.5 0-1.5.9s-.9 1.5-2.1 1.5c-1.8 0-1.9-.3-.9-1.5.6-.8.9-1.9.5-2.5-.9-1.5-3.8-1.3-3 .2.4.7-.1.4-.9-.6-2.2-2.7-2.2-5.3 0-3.6 1.3 1.1 1.6 1 2.1-.8.3-1.2 1.2-2.2 2-2.2s1.2-.4.9-.9.1-1.1.9-1.5c.8-.3 1.5 0 1.5.7s.5.4 1.1-.6c1.2-2.1 2-2.3 1.3-.2m6.5 5.5c0 1-.3.8-.9-.5-1.2-2.7-1.2-4.3 0-2.5.5.8.9 2.2.9 3M35 28c-.8.6-2.2 1-3 .9-.9 0-.5-.6 1-1.4 2.7-1.4 4.4-1 2 .5m7.7 9.7c-.5.7-1.9 1.3-3.2 1.3-3.7 0-3.9 1.8-.3 2.2 3 .3 3.3.6 3.5 3.6.1 2.8-.4 3.7-2.9 5-5.8 3.3-6.4 4.2-1.7 2.6 5.1-1.7 10.4-6.3 8.1-7.1-1-.4-.5-1.4 1.5-3.5l2.8-3.1-3.2.6c-2.5.5-3.2.3-3.5-1.1-.3-1.2-.6-1.4-1.1-.5M17 39.1c0 .7-1.2 1-3 .7l-3-.5 2.6 2.8c1.9 1.9 2.2 2.8 1.2 3.2-1.5.6 4.4 6.7 6.5 6.7.6 0-.1-.8-1.6-1.8-2.3-1.4-2.7-2.3-2.5-5.2.3-3 .7-3.5 3.1-3.8 1.5-.2 2.7-.8 2.7-1.3 0-.6-.6-.9-1.2-.6-.7.2-2.1 0-3-.5q-1.8-.9-1.8.3M7.5 43c.3.5 1.4 1 2.3 1 1.5 0 1.5-.2.2-1-2-1.3-3.3-1.3-2.5 0m43 0c-1.6.7-1.7.9-.3.9.9.1 2-.4 2.3-.9.7-1.1.7-1.1-2 0"/><path d="M19.7 44.5c-.4.8-.2 1.7.2 2 .5.2 1.1-.4 1.4-1.5.6-2.3-.8-2.7-1.6-.5m18.7-.6c.4.6.3 1.8-.4 2.6-.8 1-.8 1.5.1 2.1.8.4.9.3.5-.4s-.2-1.2.3-1.2c1.5 0 1.4-2.7-.1-3.6-.7-.4-.8-.3-.4.5m-6.4 2c0 1 3.9 4.6 4.3 4 .2-.2-.7-1.4-2-2.6S32 45.4 32 45.9m-10.5 2c-.6 1.1 1.3 2.6 2.2 1.7.4-.3.1-.6-.6-.6s-.9-.5-.6-1c.3-.6.4-1 .1-1s-.7.4-1.1.9M12 50c-1.3.8-1.2 1 .3 1 .9 0 1.7-.5 1.7-1 0-1.2-.1-1.2-2 0m35.8.7c.7.3 1.6.2 1.9-.1.4-.3-.2-.6-1.3-.5-1.1 0-1.4.3-.6.6"/></svg>