<svg xmlns="http://www.w3.org/2000/svg" width="80" height="80" viewBox="0 0 60 60"><path d="M24.3 12.8c-2.4.9-4.3 2.1-4.3 2.8 0 2.4 2.8 3.5 7.3 2.9 2.6-.4 5.3-.3 6.3.3 1.4.8 2.5.5 4.7-1l3-2.1-3.4-1.7c-5.3-2.7-9-3-13.6-1.2"/><path d="M35.5 21c-9.1 6.8-11.9 9.4-11.8 10.9.3 2 .3 2-3.5 0-3.7-2.1-3.7-2.1-1.9-.1 1.1 1.2 1.6 2.6 1.1 3.4-.4.7-.4 1 .1.6.4-.4 1.4-.3 2.1.3 1 .9 1.5.7 2-.5.3-.9 1.1-1.6 1.6-1.6C26.4 34 40 24.1 40 23.3c0-.6-.2-.5-6.7 4.6-2.4 1.8-4.3 3-4.3 2.7s4.6-3.9 10.3-8.1c5.6-4.2 8.6-6.2 6.7-4.5-1.9 1.8-2.6 2.8-1.5 2.2s3.1-2.3 4.5-3.8 1.9-2.4 1.3-2c-.8.4-1.3.1-1.3-.8s-.3-1.6-.7-1.5c-.5 0-6.2 4-12.8 8.9"/><path d="M40.9 22.2c-1.1.8-1 .8.5.4 1.6-.5 1.7-.4.6.9-.8.9-1 2.7-.6 4.9 1 5.3-1.8 11.3-6.5 13.6-4.9 2.6-8.2 2.5-13-.2-3.2-1.8-4.1-1.9-5.4-.8-2 1.6-.6 3.4 4.9 6.2 8 4.1 19.4.5 23.3-7.3 2.2-4.4 3.1-14.2 1.5-16.5-1.1-1.7-3.8-2.3-5.3-1.2m-28.3 3.5c-.3.8-.6 4-.6 7 0 5.5 0 5.5 2.3 4.1 3-2.1 3.5-11.4.6-12.1-1-.3-2 .2-2.3 1M16.5 37c-.3.5-.1 1 .4 1 .6 0 1.1-.5 1.1-1 0-.6-.2-1-.4-1-.3 0-.8.4-1.1 1m-2.7 2.7c.7.3 1.6.2 1.9-.1.4-.3-.2-.6-1.3-.5-1.1 0-1.4.3-.6.6M9.5 43c.3.5.8 1 1.1 1 .2 0 .4-.5.4-1 0-.6-.5-1-1.1-1-.5 0-.7.4-.4 1"/></svg>