<svg xmlns="http://www.w3.org/2000/svg" width="80" height="80" viewBox="0 0 60 60"><path d="M21.2 11c-3 1.3-7.9 13-5.4 13 .5 0 1.2-1.2 1.5-2.8.4-1.5 1.5-4.2 2.6-6 1.7-2.6 2.7-3.2 5.5-3.2 2 0 4.3.8 5.7 2.1l2.4 2-3-.7c-1.6-.4-4.3-.8-6-.8-2.9-.1-3-.1-7.2 13.9-2.3 7.7-3.9 14.3-3.5 14.6 1.2 1.1 23.3 7 24.2 6.4.9-.5 9-25.5 9-27.8 0-.9-1.8-2-4.7-2.8-3.1-.8-6-2.6-8.4-5.1-3.8-4-7.6-4.8-12.7-2.8m5.9 7.9c-.7.5-1 1.4-.6 2 .4.7 1.2.8 1.9.4s.3 0-.7.9c-2.2 2.1-4.7 2.4-4.7.6 0-1.5 3-4.8 4.4-4.8.6 0 .5.4-.3.9m5.5 6.8c-.5 5.8-2.7 12.2-4.1 12.2-.5-.1-.9-.4-.9-.8.6-2.8 4.8-16.1 5.1-16.1.2 0 .2 2.1-.1 4.7m7.7-2.1c-.3.9 0 1.9.6 2.4.9.5.7.9-.7 1.2-1.1.3-2.6.2-3.3-.3-1.1-.6-.9-1.2.5-2.8 2.3-2.5 3.8-2.7 2.9-.5m-15.5 3.1c-.5 2.9-3.8 4.6-3.8 2 0-1.5 2-3.7 3.2-3.7.5 0 .8.8.6 1.7M39 30c-1.3.9-1.3 1.1 0 2 1.2.8.9 1-1.2 1-1.6 0-2.8-.4-2.8-.8 0-1.3 2.3-3.2 4-3.2 1.3 0 1.3.1 0 1m-14.2 2.8c-2.7 3.4-5.8 4.4-5.8 1.7 0-1.6 2.1-3 5.1-3.2 1.8-.2 1.9 0 .7 1.5M38.5 35c-.3.5 0 1 .7 1 1.7.1-2.1 3-3.9 3-1.9 0-1.6-2.7.5-3.9 2.2-1.3 3.5-1.4 2.7-.1m-15.8 3.6c0 .7-1.1 1.7-2.4 2.3-1.7.8-2.3.8-2.3-.2 0-1.7 1.7-3.4 3.4-3.4.7 0 1.3.6 1.3 1.3M35 44.4c-2.4 1.1-3.3.5-2.4-1.7.5-1.3.9-1.4 2.5-.4 1.9 1.2 1.9 1.2-.1 2.1"/></svg>