<svg xmlns="http://www.w3.org/2000/svg" width="80" height="80" viewBox="0 0 60 60"><path d="M24 9.1C14 12.2 7.2 21.7 8.4 31.3c.7 6.7 1.7 7.5 5.6 4.7 2.6-1.9 3.1-2.8 2.6-5-.6-3.2 2.8-11 6.4-14.9 3-3 8-5.1 12.7-5.1 3-.1 3.4-.3 2.1-1-2.6-1.6-10-2-13.8-.9m26.1 2.1c-.1 2.2-1.9 4.1-10.1 10.3-5.5 4.2-10 7.3-10 7.1 0-.3 4.3-3.8 9.5-7.7 6-4.5 9.5-7.8 9.5-9 0-1.4-3.1.4-13 7.7-12.5 9.2-14.8 11.8-11.5 13 1.9.8 4.7-1.4 3.8-2.9-.3-.6-.1-.7.5-.3 1.3.8 21-13.6 21.8-15.9.3-.8.4-2.2.1-3.2q-.45-1.8-.6.9"/><path d="M18.5 31.3c.8 1.3 1.3 2.6 1 2.8-.2.3.7.5 2 .5 3.3 0 2.7-1.5-1.3-3.8L17 29zM16 36c0 .5.5 1 1.1 1 .5 0 .7-.5.4-1-.3-.6-.8-1-1.1-1-.2 0-.4.4-.4 1m6 .4c0 .2.8 1 1.8 1.7 1.5 1.3 1.6 1.2.3-.4S22 35.6 22 36.4m-6.5 4.1-3 2.5 2.5 2c6.6 5.6 15.3 7.4 21.5 4.5l3-1.3-4.5-.1c-5-.1-10.1-2.7-14-7.2l-2.5-3zm-6.5.4c0 .5.5 1.3 1 1.6.6.3 1 .2 1-.4 0-.5-.4-1.3-1-1.6-.5-.3-1-.2-1 .4"/></svg>