<svg xmlns="http://www.w3.org/2000/svg" width="80" height="80" viewBox="0 0 60 60"><path d="M21.2 11c-2.2.9-4.3 4.7-5.7 10.3-1.1 4.4.9 3.1 2.3-1.6.8-2.3 2.1-5 2.9-6 2.2-2.3 7.5-2.2 10.4.4l2.4 2.1-2.5-.7c-1.4-.3-4.1-.8-6-1.1l-3.5-.6-4 13.9c-2.2 7.6-4 14.2-4 14.8 0 1 22.4 7.6 24.1 7 1.1-.3 9.4-24.9 9.4-27.8 0-.9-1.8-2-4.7-2.8-3.1-.8-6-2.6-8.4-5.1-3.8-4-7.6-4.8-12.7-2.8m13.1 11.8c.4-.8.6-.7.6.4.1 1-.3 1.8-.7 1.8-.5 0-.8 1-.8 2.2.1 1.4-.6 2.4-1.6 2.6-1.4.3-1.6-.1-1.1-1.4.4-1.2.3-1.5-.5-1s-1 .2-.6-.8c.3-.9 1-1.3 1.5-1 .6.3.7-.6.4-2.3-.6-2.6-.5-2.7.8-1 1.1 1.4 1.6 1.5 2 .5m-3.6 11.1c-.6 1.7-1.5 2.7-2.1 2.4-.5-.3-.6-.1-.2.6.6.9 1.1.9 2.2 0 1-.8 1.4-.8 1.4-.1 0 .6-.9 1.6-1.9 2.1-1.5.9-2 .7-2.5-1.2-1-3.6-.7-4.7 1.2-4.7 1.4 0 1.5-.2.2-1-1.2-.8-1.1-1 .7-1 1.9 0 2 .2 1 2.9"/></svg>