<svg xmlns="http://www.w3.org/2000/svg" width="80" height="80" viewBox="0 0 60 60"><path d="M21.2 11c-2.2.9-4.3 4.7-5.7 10.3-1.1 4.4.9 3.1 2.3-1.6.8-2.3 2.1-5 2.9-6 2.2-2.3 7.5-2.2 10.4.4l2.4 2.1-2.5-.7c-1.4-.3-4.1-.8-6-1.1l-3.5-.6-4 13.9c-2.2 7.6-4 14.2-4 14.8 0 1.1 22.4 7.6 24.2 7 1.1-.4 9.3-24.8 9.3-27.8 0-.9-1.8-2-4.7-2.8-3.1-.8-6-2.6-8.4-5.1-3.8-4-7.6-4.8-12.7-2.8M35 27.6c2 2.3 1.6 7.5-.5 9-6.2 4.5-13.9-3.2-8.8-8.8 2-2.2 7.6-2.4 9.3-.2"/><path d="M27.9 29.9c.8.5 1.2 1.8.9 2.9s-.2 2.6.3 3.3c.6 1 .9.8.9-.9 0-1.2.4-2.2.8-2.2.5 0 1.7-.6 2.7-1.4 1.8-1.3 1.8-1.4-.7-.9-1.4.3-2.9 0-3.2-.6-.4-.6-1.3-1.1-1.9-1.1-.8 0-.7.3.2.9"/></svg>