<svg xmlns="http://www.w3.org/2000/svg" width="80" height="80" viewBox="0 0 60 60"><path d="M21 11.2C18.1 12.8 13.5 24 15.8 24c.4 0 1.3-1.9 2-4.3.8-2.3 2.1-5 2.9-6 2.2-2.3 7.5-2.2 10.4.4l2.4 2-3-.7c-1.6-.4-4.3-.8-6-.8-2.9-.1-3-.1-7.1 13.9-2.3 7.7-3.9 14.3-3.6 14.7 1.2 1.1 23.3 6.9 24.2 6.3 1-.6 9-25.4 9-27.8 0-.9-1.8-1.9-4.7-2.6-3.2-.9-5.6-2.3-7.8-4.7-3.4-4-9.3-5.4-13.5-3.2m9.3 16.2c.8-.3 1.8-.1 2.2.5.3.6 1.5 1.1 2.7 1.1 1.8 0 1.9.2.7 1.6-.7.9-1.2 2.9-1.1 4.5.2 2.7 0 2.9-3 2.9-4.3-.1-8.8-3.4-7-5.1.6-.7 1.2-2.6 1.2-4.2 0-2.4.3-2.7 1.4-1.8.7.6 2 .9 2.9.5"/></svg>