<svg xmlns="http://www.w3.org/2000/svg" width="80" height="80" viewBox="0 0 60 60"><path d="M27.8 27.7c-9.2 9.2-17.1 17.5-17.4 18.5-1 3.2.7 4 2.7 1.4 1.1-1.4 2.8-2.8 3.9-3.1 1.1-.4 2-1.1 2-1.6 0-.6-1-.7-2.2-.3-2.1.6-2 .4.7-2.6 1.7-1.7 7.8-7.6 13.6-13.1 8.8-8.2 10.5-9.4 10.1-7.2-.3 1.8-.1 2.4.7 1.9.6-.4 1.1-1.4 1.1-2.2 0-.9 1.3-2.8 2.9-4.4 2.9-3 3-4 .2-4-.8 0-9 7.5-18.3 16.7m12.7-1.4c-.4 1-.5 2.1-.1 2.4 1 1 1.8-.4 1.3-2.4-.4-1.7-.4-1.7-1.2 0m-3 6.8c-.4.6-.5 1.3-.2 1.6.7.7 2.7-.6 2.7-1.8s-1.7-1.2-2.5.2m-4.3 4.1c-1.4 1.4-1.6 3.8-.4 3.8 1.8 0 4.5-2.8 3.8-3.8-.9-1.5-1.9-1.5-3.4 0m-4.6 3.5c-1.1 1.1-.6 2.3.9 2.3.8 0 1.5-.4 1.5-.9 0-1.3-1.6-2.2-2.4-1.4M22 43c0 .5.7 1 1.5 1s1.5-.5 1.5-1c0-.6-.7-1-1.5-1s-1.5.4-1.5 1"/></svg>