<svg xmlns="http://www.w3.org/2000/svg" width="80" height="80" viewBox="0 0 60 60"><path d="M50.7 10.2c-.8 2.4-1.8 5.1-2.2 6-.4 1-.3 1.8.3 1.8.5 0 1.5-2 2.2-4.5s1.7-4.8 2.1-5.1c1.2-.7 1.1-2.4 0-2.4-.5 0-1.6 1.9-2.4 4.2M37 22.1c-8.9 8.4-11 9.9-14 10-3.5.1-3.5.1-.6.8l2.9.6-7.7 7.2c-4.3 4-7.4 7.3-6.8 7.3.5 0 1.6-.7 2.3-1.7 4-4.8 15.2-13.3 17.7-13.4 2.6-.2 2.6-.2.2-.6-2.2-.5-1.6-1.3 7.5-9.8 5.5-5.1 9.8-9.5 9.5-9.8s-5.2 4-11 9.4m-21.2-7.4c1.8.2 4.5.2 6 0s0-.4-3.3-.4-4.5.2-2.7.4m-4 3.5c.5.5 1.6.8 2.3.6.8-.3.3-.7-1-1.1-1.7-.4-2.1-.3-1.3.5M23 18c-.9.6-1 1-.3 1 .6 0 1.5-.5 1.8-1 .8-1.2.4-1.2-1.5 0m21.1 5.9c-1.3 2.3-1.4 3.1-.3 3.1 1.3 0 3.2-3.9 2.2-4.5-.5-.3-1.4.3-1.9 1.4m-7.9 7.5c.4.5.3 1.5-.4 2.3-1.6 1.9-.1 3 1.8 1.2 1.3-1.4 1.3-1.7-.3-3-1-.7-1.5-.9-1.1-.5m-6 6.6c-3.1 2.6-1.9 4.5 1.4 2.4 1.3-.9 2.4-2.3 2.4-3 0-1.9-1-1.7-3.8.6m-5.5 4.7c-1.2 1.2-.7 2.2.8 1.7.8-.4 1.5-1 1.5-1.5 0-1.1-1.4-1.2-2.3-.2m17.6 0c.9.2 2.3.2 3 0 .6-.3-.1-.5-1.8-.5-1.6 0-2.2.2-1.2.5m-1.5 5c1.2.2 3.2.2 4.5 0 1.2-.2.2-.4-2.3-.4s-3.5.2-2.2.4M14 49c-1.3.9-1.3 1 0 1 .8 0 2.2-.5 3-1 1.3-.9 1.3-1 0-1-.8 0-2.2.5-3 1m-7.8 2.2c-1.9 1.9-1.4 2.9.8 1.6C9 51.5 9.7 50 8.2 50c-.4 0-1.3.5-2 1.2"/></svg>