<svg xmlns="http://www.w3.org/2000/svg" width="80" height="80" viewBox="0 0 60 60"><path d="M36.8 17C26.9 22 26 22.7 26 25.4c0 2.1-.4 2.7-1.6 2.2-.8-.3-1.2-.2-.9.4 1.2 1.9 4.2 1 10-3.2l5.9-4.2-3.7 4.9c-4.3 5.5-5.5 9.1-3.8 10.8.9.9 1.1.8.5-.7-.6-1.6-.4-1.8 1.8-1.4 2.3.4 2.9-.4 8.2-11 3.1-6.3 5.6-11.5 5.4-11.6s-5.1 2.3-11 5.4M18.4 32.9c.3.5 1.5.7 2.6.4 2.8-.7 2.5-1.3-.6-1.3-1.4 0-2.3.4-2 .9"/><path d="M22 34.5c-3.5 2.6-7 3.3-7 1.5 0-.6.5-1 1.2-1 .9 0 .9-.3-.1-1.3s-1.5-.8-2.7.8-1.2 2.1 0 3.3c1.9 1.9 5.3 1 9.6-2.7 4.2-3.6 3.8-3.9-1-.6m3.5 1.9c-3.4 4.4-4.4 10.3-2.1 11.2s4.1-1 3.1-3.3c-.8-1.7-.8-1.7-1.2-.1-.3 1-.9 1.8-1.4 1.8-1.8 0-.9-3.7 2.1-8.3 3.5-5.5 3.2-6.2-.5-1.3M16 39.9c-5.1 1.9-6.3 4.6-3.1 7.5 2.7 2.5 5.8 1.3 7-2.7.5-1.8 1.2-4 1.6-5 .8-2 .4-2-5.5.2m1.6 3.2c.9 1.5-1.1 3.3-3 2.6-.9-.4-1.3-1.3-1-2.2.7-1.7 3-2 4-.4"/><path d="M27 40c0 1.1.4 2 .9 2s.7-.9.4-2-.7-2-.9-2-.4.9-.4 2"/></svg>