<svg xmlns="http://www.w3.org/2000/svg" width="80" height="80" viewBox="0 0 60 60"><path d="M19.8 12c-1.4 1.1-2.8 3.2-3.1 4.7-.4 1.5-.9 3.8-1.3 5-1.2 4.2 1.1 2.3 2.4-2 .8-2.3 2.1-5 2.9-6 2.2-2.3 7.5-2.2 10.4.4l2.4 2-3-.7c-1.6-.4-4.3-.8-6-.8-2.9-.1-3-.1-7.2 13.9-2.3 7.7-3.9 14.3-3.5 14.6C15 44.2 37.1 50 38 49.5c1-.6 9-25.4 9-27.8 0-.9-1.8-2-4.7-2.8-3.1-.8-6-2.6-8.4-5.1-3-3.2-4.3-3.8-7.6-3.8-2.5 0-5 .8-6.5 2M35 23.5c1.1 1.3.8 1.5-1.3 1.5-3.1 0-4 1.9-1.9 4.2 1.4 1.6 1.3 1.8-.1 1.8-1.8 0-4.7-2.6-4.7-4.2 0-1.8 3.2-4.8 5-4.8 1 0 2.3.7 3 1.5m-8.4 13.2c-1.1 1.1-1.7-.4-.9-2.3.7-1.8.8-1.8 1.1-.1.2 1 .1 2.1-.2 2.4m6.5 2.6c-1.5 1.5-2.1.5-1.4-2.2.5-2.1.7-2.1 1.6-.6.6 1.1.5 2.1-.2 2.8M29 41c0 1.1-.4 2-1 2-.5 0-1-.9-1-2s.5-2 1-2c.6 0 1 .9 1 2"/></svg>