<svg xmlns="http://www.w3.org/2000/svg" width="80" height="80" viewBox="0 0 60 60"><path d="M34.5 14.1c-1.1 3.9-2.3 7.3-2.7 7.5-.4.3-1.6-1.5-2.6-3.8l-1.9-4.3-.8 3c-.4 1.6-1.4 4-2.1 5.2-1.2 1.9-1.8 2-4.6 1.3-4-1.2-4.4-.7-2.4 2.2 2.6 3.6 2 5.6-2.4 7.8-5 2.5-5 2.5-5-.8 0-1.6-.7-3.7-1.5-4.8C7.2 25.6 7.1 25.7 7 29c0 3.8 4 13.2 6.1 14.6.9.5.8-.1-.4-1.9-2.4-3.8-2.1-4.7 1.6-4.7 5.6 0 7.7 1 7.7 3.6s1.1 3 4.1 1.4c1.6-.9 2.5-.5 5.2 2.5l3.3 3.6v-4.8l-.1-4.8 7.8.1c4.2.1 7.7 0 7.7-.2s-1.9-1.2-4.2-2.2c-9-4.1-9.5-6-3.5-12.9l3.2-3.6-3 .7c-2.9.7-2.9.7-1.1-1.3 1.1-1.2 2.4-2.1 3-2.1 1.9 0 3.8 4.1 4.6 10.3 1.2 8.2 3.4 10.2 2.8 2.5-.3-4-1.3-6.9-3.3-9.9-2.4-3.7-2.6-4.5-1.5-6.3 1.2-2 1.2-2-.6-.6-1 .8-3.9 3.2-6.3 5.2-2.4 2.1-4.6 3.6-4.9 3.4-.2-.3.1-3.5.8-7.1s1.1-6.8.8-7c-.2-.2-1.3 2.7-2.3 6.6M29 29c0 .5-.9 1-1.9 1-1.1 0-2.3-.5-2.6-1-.4-.6.5-1 1.9-1s2.6.4 2.6 1m5.3 2.6c-.3.8-.9 1.4-1.5 1.4-.5 0-.6.4-.3 1 .3.5.2 1-.3 1s-.8-1.5-.7-3.3c.4-4.2.3-4.1 1.9-2.7.8.6 1.2 1.8.9 2.6m-4.9.2c.9 1.4-.9 3.1-2.3 2.3-.7-.5-1-1.4-.7-2 .8-1.3 2.3-1.4 3-.3m-7.5-21.4c-4.6 1.6-10.6 5.9-9.1 6.4.7.2 3.4-1 6-2.7s6.6-3.5 8.7-4c3.6-.8 3.7-.9 1-1-1.6 0-4.6.6-6.6 1.3"/><path d="M21.5 18c-.7 1.2.2 3 1.6 3 1.2 0 1.2-2.7 0-3.5-.5-.3-1.2-.1-1.6.5M41 30c0 .5.5 1 1.1 1 .5 0 .7-.5.4-1-.3-.6-.8-1-1.1-1-.2 0-.4.4-.4 1M24.4 44.9c-1.7 1-4.2 3.4-5.4 5.3l-2.3 3.3 3.8-3.5 3.8-3.5-.6 4c-.5 2.9-.3 3.5.4 2.3 1-1.8 4-9.8 3.6-9.8-.1 0-1.6.9-3.3 1.9m17.2 1.2c-1.5 1.2-4.8 3-7.4 4-5.7 2.2-3.5 2.5 3.4.4C42.7 49 49 44 45.8 44c-.8 0-2.7 1-4.2 2.1m-12.5 1.5c0 1.1.3 1.4.6.6.3-.7.2-1.6-.1-1.9-.3-.4-.6.2-.5 1.3"/></svg>