<svg xmlns="http://www.w3.org/2000/svg" width="80" height="80" viewBox="0 0 60 60"><path d="M23.3 9.9C21.4 11.1 15 22.8 15 25c0 1.2-1.1 3.6-2.5 5.2-1.4 1.7-2.4 3.3-2.1 3.6.8.7 6.6-1.9 6.6-3 0-.5.8-.8 1.8-.7.9.1 2.6-.1 3.7-.5 1.1-.5 3.2-1.2 4.6-1.8 3.2-1.1 7.4-5.5 8.3-8.5.6-1.8 0-2.7-3.2-4.7-2.2-1.4-4.2-3-4.4-3.7-.5-1.4-3.1-2-4.5-1M23 26c-.8.5-1.9 1-2.5 1-.5 0-.3-.5.5-1s2-1 2.5-1c.6 0 .3.5-.5 1m13.8-3.7c-7 5.1-12.7 9.7-12.7 10.3-.2 2.3 2.5 3.4 4.5 2 1-.8 1.9-1.9 1.9-2.5 0-.5 4.3-4.2 9.5-8.1s9.8-7.6 10.2-8.3c.5-.8.8-.8.8-.1s-4.6 4.6-10.2 8.8S31 32 31.4 32s5.2-3.4 10.6-7.5c6.7-5.1 10-8.2 10-9.5 0-1.1-.6-2-1.2-2-.7.1-7 4.2-14 9.3"/><path d="M19.3 33c.9 1.4 2 2.4 2.5 2.3 2-.4.6 3.2-2 5.5-1.6 1.3-2.8 2.7-2.8 3.1s1.9 2.1 4.3 3.8c3.9 2.8 4.8 3 12.5 3 10.6 0 14.5-2.1 15-8.1.4-4.5-1.4-9.6-3.4-9.6-2.7 0-18.8 4.1-20 5.1-.8.7-1.4.7-1.9-.1-.3-.5-.2-1 .4-1s.8-.7.5-1.5c-.4-.8-1.3-1.5-2.1-1.5-.9 0-2.2-.8-3-1.8-1.2-1.3-1.2-1.2 0 .8m25.4 7c-1.6 1.3-3.9 2-6.4 1.9l-3.8-.2 4.3-.6c2.3-.4 4.8-1.3 5.4-1.9.7-.7 1.6-1.2 2.1-1.2s-.2.9-1.6 2M27 41c1 1.7.3 3.3-1.1 2.4-.5-.3-.7-1-.3-1.5.3-.5 0-.8-.7-.7-.6.2-1.3-.2-1.6-.9-.6-1.6 2.7-1 3.7.7"/><path d="M17 39c0 .5.5 1 1 1 .6 0 1-.5 1-1 0-.6-.4-1-1-1-.5 0-1 .4-1 1m-6.5 5c.3.5 1.1 1 1.6 1 .6 0 .7-.5.4-1-.3-.6-1.1-1-1.6-1-.6 0-.7.4-.4 1"/></svg>