<svg xmlns="http://www.w3.org/2000/svg" width="80" height="80" viewBox="0 0 60 60"><path d="M51.5 7.2C49.9 11.7 48 17.3 48 17.7c0 1.6 2.1-1.4 3.1-4.5.6-2 1.8-4.5 2.7-5.5 1.4-1.5 1.3-1.7-.2-1.7-.9 0-1.9.6-2.1 1.2"/><path d="M15 10.4c0 .3 3.9 2.8 8.8 5.7 12.4 7.4 11.8 6.7 8 10.6L28.6 30l-7.3-7.2c-4-4-7.3-6.8-7.3-6.3s3 4 6.7 7.7l6.8 6.8-3.2 3.1c-1.7 1.7-3.6 2.8-4.2 2.5-.6-.4-2.7-3.7-4.8-7.4C10.8 21 7 15.2 7 16.5c0 .6 2.7 5.9 6 11.8l5.9 10.8-4 3.6c-2.1 1.9-3.9 4-3.9 4.6s1.9-.8 4.3-3.1l4.2-4.1 1.8 4.2c.9 2.3 1.7 4.8 1.7 5.4 0 1.1 3 3.3 4.4 3.3.3 0 .6-1.1.6-2.5s-.3-2.5-.8-2.5c-.4 0-1.8-1.8-3.2-4s-2.8-4-3.3-4c-.4 0 3.1-3.7 7.9-8.3l8.7-8.3 2.2 2.1c7.4 6.7 9 7.6 10.8 5.9 1-1.1-1.2-4.4-2.9-4.4-.9 0-3.4-1-5.5-2.2L38 22.7l4-3.5c2.2-1.8 4.5-4.3 5.1-5.5s-1.3.2-4.4 3.1l-5.5 5.4-10.3-6.1C17.3 10.4 15 9.3 15 10.4"/><path d="M44.5 22.9c-.6 1.1.9 2.3 1.9 1.4.9-.9.7-2.3-.3-2.3-.6 0-1.2.4-1.6.9M29 32.7c0 .5 1.8 2.7 4.1 4.8 2.2 2.2 4.5 5 5 6.2.9 2.4 4.9 3.3 4.9 1.1 0-1-11.3-11.9-13.2-12.6-.4-.2-.8 0-.8.5m7 .8c-1 1.2-1 1.5.4 1.5.9 0 1.6-.7 1.6-1.5s-.2-1.5-.4-1.5-.9.7-1.6 1.5m-6.8 4.7c-.7.7-1.2 1.6-1.2 2 0 1.2 2.8 1 3.6-.3 1-1.7-1-3.1-2.4-1.7m-3.6 3.7c-.4.7-.5 1.5-.2 1.8.9.9 1.9-.4 1.4-1.8-.4-1.1-.6-1.1-1.2 0M14 48.5c-.8.9-.8 1.5-.2 1.5 1.8 0 4.2-1.2 4.2-2.1 0-1.4-2.6-1-4 .6m-8.4 3.1c-1 2.6.1 2.8 2.5.5 2.2-2.1 2.2-2.1.2-2.1-1.1 0-2.4.7-2.7 1.6"/></svg>