<svg xmlns="http://www.w3.org/2000/svg" width="80" height="80" viewBox="0 0 60 60"><path d="m35.6 20-9.2 9h-9.2c-5.5 0-9.2.4-9.2 1s3.4 1 8.2 1h8.2l-6.1 6.2c-6.3 6.5-8.8 10.2-7.8 11.7.3.5 1.9-.4 3.6-2s3.5-2.9 4-2.9.9-.5.9-1.1-.9-.8-2.2-.4c-1.4.4 3.3-4.9 11.2-12.9C35.4 22.1 41.6 16 41.8 16s.1 1.3-.3 3c-.4 1.9-.3 3 .4 3 .6 0 1.1-.9 1.1-2.1 0-1.1 1.4-3.4 3-5.1 3.6-3.5 3.6-3.8.9-3.8-1.4 0-5.6 3.3-11.3 9"/><path d="M40.3 26.9c-.4 1.6-1.3 2.1-3.9 2.1-1.8 0-3.6.4-3.9 1-.4.6 2.4 1.1 7.4 1.2 4.5.1 8.9.2 9.9.2.9.1 1.7-.6 1.7-1.4 0-1.1-1-1.4-4.2-1.2-3.3.3-4.3 0-4.3-1.2 0-2.4-2.1-3-2.7-.7m-2.6 6.6c-.9 2.3 1.1 2.8 2.3.5.8-1.6.8-2-.4-2-.7 0-1.6.7-1.9 1.5m-4.7 4c-1 1.2-1 1.9-.2 2.7 1.3 1.3 4.2-.6 4.2-2.8 0-1.9-2.4-1.8-4 .1m-4.3 3.1c-.8.8.1 2.4 1.4 2.4.5 0 .9-.7.9-1.5 0-1.5-1.2-2-2.3-.9m-5.9 2.6c.9.9 1.5.9 2.4 0S25.9 42 24 42s-2.1.3-1.2 1.2"/></svg>