<svg xmlns="http://www.w3.org/2000/svg" width="80" height="80" viewBox="0 0 60 60"><path d="M21 11.2c-3.1 1.7-6.9 11.3-5.1 13.1.8.8 1.1.6 1.1-1.1 0-2.5 1.8-7 3.8-9.5 2-2.3 7.4-2.2 10.3.3l2.4 2.1-3.5-.7c-8.5-1.8-7.9-2.4-12.6 13.1-2.4 7.7-4 14.3-3.6 14.7.9.8 24.2 7.2 24.6 6.7.7-.8 8.6-26.7 8.6-28.2 0-.9-1.8-1.9-4.7-2.6-3.2-.9-5.6-2.3-7.8-4.7C31 10.3 25.2 9 21 11.2m13.4 13.4c1.8 1.7 2.1 6 .6 6.9-.5.3-1 0-1.1-.7 0-.7-.5 0-1 1.7-.7 2.4-.5 3.3.8 4.2.9.7 1.2 1.3.6 1.3-.7 0-1.5-.5-1.8-1.1-.4-.6-1.7-1.4-2.9-1.8-1.5-.6-2.3-.4-2.8.8-.6 1.4-.7 1.4-.7-.2-.1-.9-.7-1.7-1.3-1.7-.7-.1-.1-.8 1.5-1.6 1.5-.8 2.7-1.7 2.7-2 0-.2-.9 0-1.9.6-2.5 1.3-3.4 1.3-2.5-.1.3-.6.2-1.4-.5-1.8-.7-.5-.6-1.4.6-3 1.5-2.3 1.7-2.3 3-.6 1.6 2.3 4.3 2.8 4.3.9 0-.9-.4-1.2-1-.9-.5.3-1-.1-1-.9 0-2.1 2.4-2 4.4 0m3.6 7.5c-.6 1-1.5 1.9-2 1.9-1.3 0-1.3-.6.2-2.9 1.5-2.5 3.1-1.6 1.8 1"/></svg>