<svg xmlns="http://www.w3.org/2000/svg" width="80" height="80" viewBox="0 0 60 60"><path d="M19.8 11.5c-3.7 2.1-7.2 8-6.4 11 .4 1.4 1.1 2.5 1.7 2.5s.8-.7.5-1.6c-.3-.8-.1-2.4.4-3.4 1.3-2.4 9.1-7 11.6-6.9 1.8.1 1.8.1-.1.8-5.1 1.6-8.5 4.2-8.5 6.5 0 3.3 1.1 3.9 2.4 1.3S26 18.4 29 20c1.7.9 1.9 1.4.9 2.6-2.2 2.6 1 1.6 5.6-1.9 2.3-1.7 5.1-3.7 6.1-4.4 1.8-1.2 1.8-1.2-.3-1.9-1.3-.3-2.3-1-2.3-1.4 0-2.8-14.6-3.9-19.2-1.5"/><path d="M50.1 13.6c0 1.1-1.1 2.9-2.3 4-2.3 1.9-2.3 1.9-.5-.2 1.7-2 2.3-4.4 1.1-4.4-.3 0-6.2 4.1-13 9.1-10.1 7.4-12.3 9.5-11.9 11.1.6 1.7.4 1.7-3.2-.3-3.7-2.1-3.8-2.1-2-.1 1.1 1.2 1.6 2.6 1.1 3.4-.4.7-.4 1 .1.6.4-.4 1.4-.3 2.1.3 1 .9 1.5.7 2-.5.3-.9 1.1-1.6 1.8-1.6.6 0 2.2-1 3.6-2.1s1.9-1.8 1.3-1.4c-.7.3-1.3.4-1.3.1 0-1.1 15.5-12.3 16.6-11.9 1.7.6 5.6-4.3 5.1-6.4-.4-1.6-.5-1.5-.6.3"/><path d="M43 21.5c-.7.8-.9 1.5-.5 1.5s.2.7-.5 1.5c-1.8 2.1-3.5 1.9-1.9-.3q1.95-2.25-.3-.3c-1 .7-1.5 1.7-1.3 2.2.3.4-1 2-3 3.6-1.9 1.5-3.5 3.4-3.5 4.2 0 1.1.3 1.1 1.5.1 1.1-.9 1.9-1 2.7-.2 1.7 1.7-.1 3.2-3.5 2.7-1.8-.3-2.6-.3-1.9.1.6.3 1.2 1.7 1.2 3 0 1.9-.5 2.4-2.4 2.4-1.3 0-3.2.3-4.1.6-1.2.5-1.6.2-1.3-1.1.5-2.9-4.2-2.9-7.6.1-2.7 2.4-2.8 2.6-1 4 15 12 37.9-2 33.2-20.4-1-4.1-2.1-5.2-3.3-3.2-.3.5-1.1 1-1.7 1-.7 0-.6-.6.2-1.5.7-.8 1-1.5.7-1.5-.2 0-1 .7-1.7 1.5"/><path d="M33.5 28.6c-1.8 1.6-2.2 2.2-.9 1.5 1.8-.9 5.3-4.2 4.3-4.1-.2.1-1.7 1.2-3.4 2.6m-21.8 4.2c-.9.2-1.5.8-1.1 1.3.3.6.1 1.6-.5 2.3-.8 1-.8 1.6.2 2.4 1 .9 2.1.5 4.6-1.6l3.3-2.8-2.3-1c-1.3-.6-3.2-.8-4.2-.6m4.8 5.2c-.3.5-.1 1 .4 1 .6 0 1.1-.5 1.1-1 0-.6-.2-1-.4-1-.3 0-.8.4-1.1 1m-2.7 2.7c.7.3 1.6.2 1.9-.1.4-.3-.2-.6-1.3-.5-1.1 0-1.4.3-.6.6M9.5 44c.3.5.8 1 1.1 1 .2 0 .4-.5.4-1 0-.6-.5-1-1.1-1-.5 0-.7.4-.4 1"/></svg>