<svg xmlns="http://www.w3.org/2000/svg" width="80" height="80" viewBox="0 0 60 60"><path d="M51.1 12.6c0 1.1.3 1.4.6.6.3-.7.2-1.6-.1-1.9-.3-.4-.6.2-.5 1.3M40 19.3l-8.5 6.2-10.9-.3c-7.2-.2-10.5-.7-9.5-1.3 1.1-.7.9-.9-.8-.9C9 23 8 23.5 8 24.1c0 .5-.6.7-1.2.3-.9-.5-1-.4-.3.4.6.7 5.7 1.2 12.4 1.4l11.4.3-4.9 3.8c-4.5 3.5-5 3.7-6.1 2.1-.7-1-1.3-1.4-1.3-.8 0 .5 1.3 2.3 2.8 3.9 1.5 1.7 2.6 2.9 2.5 2.6-.2-.2 1.3-1.5 3.2-2.8 2-1.3 3.3-2.8 3-3.3-.3-.6.1-.7.9-.4.9.3 1.2 1.3.9 2.2-.5 1.5-.4 1.5.8 0 1-1.2 3.2-1.8 7.9-2l6.5-.3-7.2-.5c-4.1-.3-6.9-.1-6.6.4.4.5.1.6-.6.2-1.5-1 .5-3.7 2.2-3.1.7.3 2.6-.8 4.2-2.3 1.7-1.5 2.4-2.3 1.5-1.7-1.3.9-1.3.8-.2-.7.8-.9 1.9-1.5 2.7-1.2.7.3 1.6 0 2.1-.7.5-.8.3-1-.7-.4-1.2.8-1.2.6 0-.8.7-.9 1.8-1.4 2.3-1.1 1.5 1 4.6-2.5 4.1-4.7-.3-1-.8-1.9-1.2-1.9-.3.1-4.4 2.9-9.1 6.3m10-2.9c0 .2-.8 1-1.7 1.7-1.6 1.3-1.7 1.2-.4-.4s2.1-2.1 2.1-1.3m-12 9c0 .2-.8 1-1.7 1.7-1.6 1.3-1.7 1.2-.4-.4s2.1-2.1 2.1-1.3m-13 9.7c0 .6-.4.7-1 .4-.5-.3-1-1.1-1-1.6 0-.6.5-.7 1-.4.6.3 1 1.1 1 1.6"/><path d="M34.3 15.7c1.5.2 3.9.2 5.5 0 1.5-.2.2-.4-2.8-.4s-4.3.2-2.7.4m-7.7 1.2c-.9 1.3 1.5 2.8 5.7 3.4 5.2.8 4.6 0-1-1.5-4.3-1.1-4.5-1.3-2.3-1.9 2.3-.6 2.3-.7.3-.8-1.2-.1-2.4.3-2.7.8M19.5 21c.3.6-.4 1.1-1.7 1.1-1.8.1-1.9.2-.5.6 2.2.6 6.7-.4 6.7-1.5 0-.4-1.1-.9-2.6-1-1.4-.1-2.3.2-1.9.8m28.1.5c-2 1.5-2 1.5 0 1.5 1.2 0 2.1-.7 2.1-1.5s-.1-1.5-.1-1.5c-.1 0-1 .7-2 1.5m3.9 8.5c-.3.5.1 1 1 1s1.3-.5 1-1c-.3-.6-.8-1-1-1s-.7.4-1 1m-6.9 6.5c1.7 1.3.9 1.4-8.3 1.5-6.2 0-10.3.4-10.3 1 0 1.1 14.8 1.4 19.9.4l3.1-.6-2.4-1.9c-1.3-1.1-2.8-1.9-3.2-1.9s.1.7 1.2 1.5M7.5 38c-.4.6.7 1 2.7.9 2.7 0 3-.2 1.3-.9-2.7-1.2-3.3-1.2-4 0m9.5 1.1c0 .5.5.7 1 .4.6-.3 1-.8 1-1.1 0-.2-.4-.4-1-.4-.5 0-1 .5-1 1.1M14 41c0 .5.5 1 1 1 .6 0 1-.5 1-1 0-.6-.4-1-1-1-.5 0-1 .4-1 1m-4 3c0 .5.5 1 1.1 1 .5 0 .7-.5.4-1-.3-.6-.8-1-1.1-1-.2 0-.4.4-.4 1m13.3-.3c4.2.2 7.7.7 7.7 1s-.7 1.1-1.6 1.7c-1.3 1-1.3 1.2.5 1.3 1.5.1 2.1-.4 2.1-2 0-1.8.2-1.9 1.1-.7.9 1.3 1 1.3.6 0-.3-1.2-2.2-1.5-9.3-1.6-8.6 0-8.7 0-1.1.3M7.7 46.1c.7.7 1.5 1 1.8.7s-.2-.9-1.2-1.2c-1.4-.6-1.5-.5-.6.5m33.8.9c.3.5 1.1 1 1.6 1 .6 0 .7-.5.4-1-.3-.6-1.1-1-1.6-1-.6 0-.7.4-.4 1"/></svg>