<svg xmlns="http://www.w3.org/2000/svg" width="80" height="80" viewBox="0 0 60 60"><path d="M39.5 13.5C34 14.7 24.6 16.8 18.7 18c-6 1.3-10.5 2.6-10 3 .4.4 8.4 2.8 17.6 5.3 9.3 2.5 17.2 4.8 17.5 5.2.3.3-2.5 3.8-6.4 7.7-7.5 7.9-7.1 7.7 5.8-3.1 8.4-7 9.8-9.1 6-9.1C46 27 24 22.6 24 22c0-.4 3-1.2 6.7-1.9 3.8-.7 7.9-1.4 9.3-1.7 2.3-.5 2.2-.3-1 2.5-3.3 2.9-3.4 3-1.1 3.1 2.8 0 11.9-6.5 13.1-9.4.7-1.6.9-1.7.9-.4.1.9-2.3 3.7-5.1 6.3-2.9 2.6-3.9 3.8-2.3 2.7 5.5-3.7 8.5-7 8.5-9.7 0-3-.2-3-13.5 0"/><path d="M26.1 30.6c-6.4 5.3-2.6 8.1 4.3 3.3 4.6-3.3 4.6-3.3 2.4-4.6-3.1-1.7-3.2-1.7-6.7 1.3m6.4.4c-.3.5-1.6 1.5-2.8 2.1-2.1 1-2.1.9.2-1 2.5-2.3 3.6-2.7 2.6-1.1"/><path d="M16.6 33c1.3 2.5 7.6 11 8.1 11 .3 0 0-.7-.7-1.5-.7-.9-1.3-2.8-1.4-4.3-.1-1.8-.7-2.8-2.1-3.1-1.1-.2-2.6-1.1-3.3-2-1-1.1-1.1-1.2-.6-.1m-1.1 8c.3.5.8 1 1.1 1 .2 0 .4-.5.4-1 0-.6-.5-1-1.1-1-.5 0-.7.4-.4 1M8 46c0 .5.5 1 1.1 1 .5 0 .7-.5.4-1-.3-.6-.8-1-1.1-1-.2 0-.4.4-.4 1"/></svg>