<svg xmlns="http://www.w3.org/2000/svg" width="80" height="80" viewBox="0 0 60 60"><path d="M29 11.5c0 1 3.1 6 4.2 6.6 1 .7 1 .9-.3.9-.8 0-2.2-1.5-3-3.3-.9-2.1-2.2-3.3-3.7-3.5-2.9-.4-7.5 1.4-9.7 3.7-1.4 1.7-1.3 1.9 2.8 3.5 2.4.9 5.3 2.8 6.5 4.1 1.2 1.4 2.6 2.5 3 2.5.5 0 3.5-1.8 6.6-4.1 5.4-3.9 5.6-4.2 4.1-5.9-1.3-1.5-10.5-5.4-10.5-4.5"/><path d="M36 22.5c-9.5 7.1-12.4 9.9-12.3 11.4.3 2 .3 2-3.5 0-3.7-2.1-3.7-2.1-1.9-.1 1.1 1.2 1.6 2.6 1.1 3.3-.4.7-.3 1 .4.5.6-.3 1.4-.1 1.8.5.5.9 1 .8 1.8-.2.6-.8 2-1.9 3.1-2.6 1.1-.6 1.9-1.6 1.8-2.2-.2-.6.4-.8 1.4-.4 1.1.4 1.4.2.9-.5-.4-.7 3.1-3.9 8.9-8.3 6.1-4.6 9.5-7.8 9.5-9 0-1.1-.1-1.9-.2-1.8-.2 0-5.9 4.3-12.8 9.4"/><path d="M50 15c0 1.3-3.1 4.3-9.5 9.1-5.2 3.9-9.5 7.4-9.5 7.6 0 .3.7 0 1.5-.7 1.3-1.1 2.1-.8 4.6 1.6 1.6 1.5 3.5 4.5 4.1 6.6.9 3.2.9 4.1-.5 5.6-2.2 2.4-2.1 3.2.2 3.2 2.6 0 3-.7 3.9-8 .7-5 .6-6.5-.7-8.3-4.3-6-4.3-6 1.5-10.5 3.3-2.6 5.4-5 5.4-6.2 0-1.1-.2-2-.5-2s-.5.9-.5 2M39.5 27c-.3.5-1.6 1.5-2.8 2.1-1.9.9-1.9.8.3-1 2.8-2.3 3.4-2.6 2.5-1.1m-28-5.6c-2.4 3.7-4.2 13.3-2.7 14.8 1.8 1.8 4.6-.2 5-3.5.4-2.8 4-4.3 8.3-3.3 1.4.4 3.2 0 4.3-.9 1.8-1.3 1.7-1.5-1.4-4.2-6.5-5.6-11.1-6.6-13.5-2.9"/><path d="M45.8 22.7c-.3.4-.4 2.1-.3 3.8.2 3.3 2.7 4.2 3.3 1.3.4-1.9-2.3-6.4-3-5.1M31.2 33.6c-1.7 1.2-2.1 2.4-2 5.6.1 2.5-.3 4.3-1 4.6-1.4.4-1.6 3.2-.3 3.2s2.1-1.4 4.8-8c2.5-5.9 1.9-7.8-1.5-5.4M16.5 39c-.3.5-.1 1 .4 1 .6 0 1.1-.5 1.1-1 0-.6-.2-1-.4-1-.3 0-.8.4-1.1 1m-3 2c-.3.5.1 1 1 1s1.3-.5 1-1c-.3-.6-.8-1-1-1s-.7.4-1 1m-4 4c.3.5.8 1 1.1 1 .2 0 .4-.5.4-1 0-.6-.5-1-1.1-1-.5 0-.7.4-.4 1"/></svg>